<svg width="33" height="33" viewBox="0 0 33 33" fill="none" xmlns="http://www.w3.org/2000/svg">
<path fill-rule="evenodd" clip-rule="evenodd" d="M17.15 7.16147C18.7539 6.85723 19.9666 5.44808 19.9666 3.75569C19.9666 1.84112 18.4146 0.289062 16.5 0.289062C14.5854 0.289062 13.0334 1.84112 13.0334 3.75569C13.0334 5.44808 14.2461 6.85723 15.85 7.16147V13.6902L17.15 13.6902V7.16147ZM7.1613 17.1502C6.85705 18.754 5.44791 19.9668 3.75551 19.9668C1.84094 19.9668 0.288879 18.4147 0.288879 16.5002C0.288879 14.5856 1.84094 13.0335 3.75551 13.0335C5.44791 13.0335 6.85705 14.2463 7.1613 15.8502L13.69 15.8502V17.1502H7.1613ZM15.85 25.8389C14.2461 26.1431 13.0333 27.5522 13.0333 29.2446C13.0333 31.1592 14.5854 32.7113 16.5 32.7113C18.4145 32.7113 19.9666 31.1592 19.9666 29.2446C19.9666 27.5522 18.7538 26.1431 17.15 25.8389V19.3101L15.85 19.3101V25.8389ZM29.2445 13.0334C27.5521 13.0334 26.1429 14.2461 25.8387 15.85L19.3099 15.85V17.15H25.8387C26.1429 18.7539 27.5521 19.9666 29.2445 19.9666C31.159 19.9666 32.7111 18.4146 32.7111 16.5C32.7111 14.5854 31.159 13.0334 29.2445 13.0334ZM23.5633 10.3556C24.9126 11.2746 26.7665 11.1357 27.9632 9.93904C29.317 8.58524 29.317 6.3903 27.9632 5.0365C26.6094 3.68269 24.4145 3.68269 23.0607 5.0365C21.864 6.2332 21.7251 8.08717 22.6441 9.43641L18.0276 14.0529L18.9468 14.9722L23.5633 10.3556ZM9.43725 10.3558C8.088 11.2748 6.23404 11.1359 5.03733 9.93919C3.68352 8.58539 3.68352 6.39044 5.03733 5.03664C6.39113 3.68284 8.58608 3.68284 9.93988 5.03664C11.1366 6.23335 11.2755 8.08732 10.3565 9.43656L14.973 14.0531L14.0538 14.9723L9.43725 10.3558ZM9.43725 22.6435C8.088 21.7246 6.23404 21.8634 5.03733 23.0601C3.68352 24.4139 3.68352 26.6089 5.03733 27.9627C6.39113 29.3165 8.58608 29.3165 9.93988 27.9627C11.1366 26.766 11.2755 24.912 10.3565 23.5628L14.973 18.9462L14.0538 18.027L9.43725 22.6435ZM27.9632 23.0601C26.7665 21.8634 24.9126 21.7246 23.5633 22.6435L18.9468 18.027L18.0276 18.9462L22.6441 23.5628C21.7251 24.912 21.864 26.766 23.0607 27.9627C24.4145 29.3165 26.6094 29.3165 27.9632 27.9627C29.317 26.6089 29.317 24.4139 27.9632 23.0601Z" fill="#A17FBC"/>
</svg>
