<svg width="36" height="36" viewBox="0 0 36 36" fill="none" xmlns="http://www.w3.org/2000/svg">
<path fill-rule="evenodd" clip-rule="evenodd" d="M13.7818 5.95356L18 17.9566L22.2183 5.95356C23.2402 3.04557 21.0824 2.69467e-07 18 0C17.8074 -1.6842e-08 17.6184 0.0118967 17.4335 0.034913C14.6604 0.380158 12.8237 3.22731 13.7818 5.95356ZM13.7818 30.0465L18 18.0434L22.2183 30.0465C23.2402 32.9545 21.0824 36 18 36C17.8074 36 17.6184 35.9882 17.4335 35.9651C14.6604 35.6199 12.8237 32.7727 13.7818 30.0465ZM18.0434 18.0001L30.0465 13.7819C32.9545 12.7599 36 14.9178 36 18.0001C36 21.0824 32.9545 23.2403 30.0465 22.2183L18.0434 18.0001ZM5.95356 13.7819L17.9566 18.0001L5.95356 22.2183C3.04556 23.2403 1.34734e-07 21.0824 0 18.0001C-1.34733e-07 14.9177 3.04556 12.7599 5.95356 13.7819ZM18.0307 18.0308L29.5009 23.5355C32.2798 24.8692 32.9075 28.5485 30.7279 30.7281C28.5484 32.9076 24.869 32.2799 23.5354 29.501L18.0307 18.0308ZM12.4646 6.49928L17.9693 17.9695L6.49915 12.4648C6.15179 12.2981 5.83804 12.0947 5.55918 11.8622C3.60719 10.2347 3.36499 7.17934 5.27209 5.27223C7.45164 3.09268 11.131 3.72039 12.4646 6.49928ZM17.9693 18.0306L12.4646 29.5008C11.2977 31.9324 8.33482 32.7169 6.1522 31.4149C5.8404 31.2289 5.54452 31.0003 5.27208 30.7279C3.09253 28.5483 3.72023 24.869 6.49913 23.5353L17.9693 18.0306ZM29.5009 12.4646L18.0307 17.9693L23.5354 6.49909C24.869 3.72019 28.5484 3.09248 30.7279 5.27203C31.0004 5.54447 31.2289 5.84035 31.4149 6.15215C32.7169 8.33477 31.9324 11.2977 29.5009 12.4646Z" fill="#7FBC8C"/>
</svg>
